<svg xmlns="http://www.w3.org/2000/svg" version="1.1" xmlns:xlink="http://www.w3.org/1999/xlink" xmlns:svgjs="http://svgjs.dev/svgjs" width="1920" height="150" preserveAspectRatio="none" viewBox="0 0 1920 150"><g mask="url(&quot;#SvgjsMask1063&quot;)" fill="none"><rect width="1920" height="150" x="0" y="0" fill="url(&quot;#SvgjsLinearGradient1064&quot;)"></rect><path d="M-44.97 107.89L-44.97 107.89" stroke="#132e65" stroke-width="1.5"></path><path d="M-44.97 107.89L-105.43 214.6" stroke="#132e65" stroke-width="1.5"></path><path d="M-44.97 107.89L94.2 212.36" stroke="#132e65" stroke-width="1.5"></path><path d="M-44.97 107.89L235.3 111.5" stroke="#132e65" stroke-width="1.5"></path><path d="M-44.97 107.89L233.7 205.93" stroke="#132e65" stroke-width="1.5"></path><path d="M-44.97 107.89L410.25 201.08" stroke="#132e65" stroke-width="1.5"></path><path d="M-44.97 107.89L525.84 80.88" stroke="#132e65" stroke-width="1.5"></path><path d="M-105.43 214.6L-105.43 214.6" stroke="#132e65" stroke-width="1.5"></path><path d="M-105.43 214.6L94.2 212.36" stroke="#132e65" stroke-width="1.5"></path><path d="M-105.43 214.6L233.7 205.93" stroke="#132e65" stroke-width="1.5"></path><path d="M-105.43 214.6L235.3 111.5" stroke="#132e65" stroke-width="1.5"></path><path d="M-105.43 214.6L410.25 201.08" stroke="#132e65" stroke-width="1.5"></path><path d="M94.2 212.36L94.2 212.36" stroke="#132e65" stroke-width="1.5"></path><path d="M94.2 212.36L233.7 205.93" stroke="#132e65" stroke-width="1.5"></path><path d="M235.3 111.5L235.3 111.5" stroke="#132e65" stroke-width="1.5"></path><path d="M235.3 111.5L233.7 205.93" stroke="#132e65" stroke-width="1.5"></path><path d="M235.3 111.5L94.2 212.36" stroke="#132e65" stroke-width="1.5"></path><path d="M235.3 111.5L410.25 201.08" stroke="#132e65" stroke-width="1.5"></path><path d="M235.3 111.5L525.84 80.88" stroke="#132e65" stroke-width="1.5"></path><path d="M233.7 205.93L233.7 205.93" stroke="#132e65" stroke-width="1.5"></path><path d="M233.7 205.93L410.25 201.08" stroke="#132e65" stroke-width="1.5"></path><path d="M410.25 201.08L410.25 201.08" stroke="#132e65" stroke-width="1.5"></path><path d="M410.25 201.08L530.34 237.1" stroke="#132e65" stroke-width="1.5"></path><path d="M410.25 201.08L525.84 80.88" stroke="#132e65" stroke-width="1.5"></path><path d="M525.84 80.88L525.84 80.88" stroke="#132e65" stroke-width="1.5"></path><path d="M525.84 80.88L668.4 103.2" stroke="#132e65" stroke-width="1.5"></path><path d="M525.84 80.88L530.34 237.1" stroke="#132e65" stroke-width="1.5"></path><path d="M525.84 80.88L672.2 206.37" stroke="#132e65" stroke-width="1.5"></path><path d="M525.84 80.88L811.03 188.97" stroke="#132e65" stroke-width="1.5"></path><path d="M530.34 237.1L530.34 237.1" stroke="#132e65" stroke-width="1.5"></path><path d="M530.34 237.1L672.2 206.37" stroke="#132e65" stroke-width="1.5"></path><path d="M668.4 103.2L668.4 103.2" stroke="#132e65" stroke-width="1.5"></path><path d="M668.4 103.2L672.2 206.37" stroke="#132e65" stroke-width="1.5"></path><path d="M672.2 206.37L672.2 206.37" stroke="#132e65" stroke-width="1.5"></path><path d="M672.2 206.37L811.03 188.97" stroke="#132e65" stroke-width="1.5"></path><path d="M811.03 188.97L811.03 188.97" stroke="#132e65" stroke-width="1.5"></path><path d="M811.03 188.97L668.4 103.2" stroke="#132e65" stroke-width="1.5"></path><path d="M811.03 188.97L1002.25 207.91" stroke="#132e65" stroke-width="1.5"></path><path d="M811.03 188.97L987.61 62.45" stroke="#132e65" stroke-width="1.5"></path><path d="M987.61 62.45L987.61 62.45" stroke="#132e65" stroke-width="1.5"></path><path d="M987.61 62.45L1002.25 207.91" stroke="#132e65" stroke-width="1.5"></path><path d="M987.61 62.45L1162.33 80.43" stroke="#132e65" stroke-width="1.5"></path><path d="M1002.25 207.91L1002.25 207.91" stroke="#132e65" stroke-width="1.5"></path><path d="M1162.33 80.43L1162.33 80.43" stroke="#132e65" stroke-width="1.5"></path><path d="M1162.33 80.43L1290.85 98.53" stroke="#132e65" stroke-width="1.5"></path><path d="M1162.33 80.43L1145.67 242.35" stroke="#132e65" stroke-width="1.5"></path><path d="M1145.67 242.35L1145.67 242.35" stroke="#132e65" stroke-width="1.5"></path><path d="M1145.67 242.35L1278.16 204.48" stroke="#132e65" stroke-width="1.5"></path><path d="M1145.67 242.35L1002.25 207.91" stroke="#132e65" stroke-width="1.5"></path><path d="M1145.67 242.35L1290.85 98.53" stroke="#132e65" stroke-width="1.5"></path><path d="M1145.67 242.35L987.61 62.45" stroke="#132e65" stroke-width="1.5"></path><path d="M1145.67 242.35L1414.69 203.99" stroke="#132e65" stroke-width="1.5"></path><path d="M1266.79 -80.58L1266.79 -80.58" stroke="#132e65" stroke-width="1.5"></path><path d="M1266.79 -80.58L1429.98 -41.13" stroke="#132e65" stroke-width="1.5"></path><path d="M1266.79 -80.58L1290.85 98.53" stroke="#132e65" stroke-width="1.5"></path><path d="M1266.79 -80.58L1162.33 80.43" stroke="#132e65" stroke-width="1.5"></path><path d="M1266.79 -80.58L1410.62 68.19" stroke="#132e65" stroke-width="1.5"></path><path d="M1266.79 -80.58L1540.83 -107.04" stroke="#132e65" stroke-width="1.5"></path><path d="M1290.85 98.53L1290.85 98.53" stroke="#132e65" stroke-width="1.5"></path><path d="M1290.85 98.53L1278.16 204.48" stroke="#132e65" stroke-width="1.5"></path><path d="M1290.85 98.53L1410.62 68.19" stroke="#132e65" stroke-width="1.5"></path><path d="M1278.16 204.48L1278.16 204.48" stroke="#132e65" stroke-width="1.5"></path><path d="M1278.16 204.48L1414.69 203.99" stroke="#132e65" stroke-width="1.5"></path><path d="M1429.98 -41.13L1429.98 -41.13" stroke="#132e65" stroke-width="1.5"></path><path d="M1429.98 -41.13L1410.62 68.19" stroke="#132e65" stroke-width="1.5"></path><path d="M1429.98 -41.13L1540.83 -107.04" stroke="#132e65" stroke-width="1.5"></path><path d="M1429.98 -41.13L1290.85 98.53" stroke="#132e65" stroke-width="1.5"></path><path d="M1429.98 -41.13L1590.97 110.08" stroke="#132e65" stroke-width="1.5"></path><path d="M1429.98 -41.13L1414.69 203.99" stroke="#132e65" stroke-width="1.5"></path><path d="M1410.62 68.19L1410.62 68.19" stroke="#132e65" stroke-width="1.5"></path><path d="M1410.62 68.19L1414.69 203.99" stroke="#132e65" stroke-width="1.5"></path><path d="M1410.62 68.19L1590.97 110.08" stroke="#132e65" stroke-width="1.5"></path><path d="M1410.62 68.19L1544.63 201.66" stroke="#132e65" stroke-width="1.5"></path><path d="M1410.62 68.19L1278.16 204.48" stroke="#132e65" stroke-width="1.5"></path><path d="M1414.69 203.99L1414.69 203.99" stroke="#132e65" stroke-width="1.5"></path><path d="M1414.69 203.99L1544.63 201.66" stroke="#132e65" stroke-width="1.5"></path><path d="M1414.69 203.99L1290.85 98.53" stroke="#132e65" stroke-width="1.5"></path><path d="M1414.69 203.99L1590.97 110.08" stroke="#132e65" stroke-width="1.5"></path><path d="M1540.83 -107.04L1540.83 -107.04" stroke="#132e65" stroke-width="1.5"></path><path d="M1540.83 -107.04L1704.82 -97.37" stroke="#132e65" stroke-width="1.5"></path><path d="M1590.97 110.08L1590.97 110.08" stroke="#132e65" stroke-width="1.5"></path><path d="M1590.97 110.08L1544.63 201.66" stroke="#132e65" stroke-width="1.5"></path><path d="M1590.97 110.08L1702.34 48.5" stroke="#132e65" stroke-width="1.5"></path><path d="M1544.63 201.66L1544.63 201.66" stroke="#132e65" stroke-width="1.5"></path><path d="M1704.82 -97.37L1704.82 -97.37" stroke="#132e65" stroke-width="1.5"></path><path d="M1704.82 -97.37L1702.34 48.5" stroke="#132e65" stroke-width="1.5"></path><path d="M1704.82 -97.37L1891.89 -82.27" stroke="#132e65" stroke-width="1.5"></path><path d="M1702.34 48.5L1702.34 48.5" stroke="#132e65" stroke-width="1.5"></path><path d="M1702.34 48.5L1735.97 200.59" stroke="#132e65" stroke-width="1.5"></path><path d="M1702.34 48.5L1892.55 106.48" stroke="#132e65" stroke-width="1.5"></path><path d="M1735.97 200.59L1735.97 200.59" stroke="#132e65" stroke-width="1.5"></path><path d="M1735.97 200.59L1851.37 244.59" stroke="#132e65" stroke-width="1.5"></path><path d="M1735.97 200.59L1590.97 110.08" stroke="#132e65" stroke-width="1.5"></path><path d="M1891.89 -82.27L1891.89 -82.27" stroke="#132e65" stroke-width="1.5"></path><path d="M1891.89 -82.27L1991.47 -105.15" stroke="#132e65" stroke-width="1.5"></path><path d="M1891.89 -82.27L1999.6 61.62" stroke="#132e65" stroke-width="1.5"></path><path d="M1892.55 106.48L1892.55 106.48" stroke="#132e65" stroke-width="1.5"></path><path d="M1892.55 106.48L1999.6 61.62" stroke="#132e65" stroke-width="1.5"></path><path d="M1892.55 106.48L1851.37 244.59" stroke="#132e65" stroke-width="1.5"></path><path d="M1892.55 106.48L2048.76 192.27" stroke="#132e65" stroke-width="1.5"></path><path d="M1892.55 106.48L1735.97 200.59" stroke="#132e65" stroke-width="1.5"></path><path d="M1851.37 244.59L1851.37 244.59" stroke="#132e65" stroke-width="1.5"></path><path d="M1991.47 -105.15L1991.47 -105.15" stroke="#132e65" stroke-width="1.5"></path><path d="M1999.6 61.62L1999.6 61.62" stroke="#132e65" stroke-width="1.5"></path><path d="M1999.6 61.62L2048.76 192.27" stroke="#132e65" stroke-width="1.5"></path><path d="M1999.6 61.62L1991.47 -105.15" stroke="#132e65" stroke-width="1.5"></path><path d="M1999.6 61.62L1851.37 244.59" stroke="#132e65" stroke-width="1.5"></path><path d="M1999.6 61.62L1702.34 48.5" stroke="#132e65" stroke-width="1.5"></path><path d="M2048.76 192.27L2048.76 192.27" stroke="#132e65" stroke-width="1.5"></path><circle r="5" cx="-44.97" cy="107.89" fill="#132e65"></circle><circle r="5" cx="-105.43" cy="214.6" fill="#132e65"></circle><circle r="5" cx="94.2" cy="212.36" fill="#132e65"></circle><circle r="5" cx="235.3" cy="111.5" fill="#132e65"></circle><circle r="5" cx="233.7" cy="205.93" fill="#132e65"></circle><circle r="5" cx="410.25" cy="201.08" fill="#132e65"></circle><circle r="5" cx="525.84" cy="80.88" fill="#132e65"></circle><circle r="5" cx="530.34" cy="237.1" fill="#132e65"></circle><circle r="5" cx="668.4" cy="103.2" fill="#132e65"></circle><circle r="5" cx="672.2" cy="206.37" fill="#132e65"></circle><circle r="5" cx="811.03" cy="188.97" fill="#132e65"></circle><circle r="5" cx="987.61" cy="62.45" fill="#132e65"></circle><circle r="5" cx="1002.25" cy="207.91" fill="#132e65"></circle><circle r="5" cx="1162.33" cy="80.43" fill="#132e65"></circle><circle r="5" cx="1145.67" cy="242.35" fill="#132e65"></circle><circle r="5" cx="1266.79" cy="-80.58" fill="#132e65"></circle><circle r="5" cx="1290.85" cy="98.53" fill="#132e65"></circle><circle r="5" cx="1278.16" cy="204.48" fill="#132e65"></circle><circle r="5" cx="1429.98" cy="-41.13" fill="#132e65"></circle><circle r="5" cx="1410.62" cy="68.19" fill="#132e65"></circle><circle r="5" cx="1414.69" cy="203.99" fill="#132e65"></circle><circle r="5" cx="1540.83" cy="-107.04" fill="#132e65"></circle><circle r="5" cx="1590.97" cy="110.08" fill="#132e65"></circle><circle r="5" cx="1544.63" cy="201.66" fill="#132e65"></circle><circle r="5" cx="1704.82" cy="-97.37" fill="#132e65"></circle><circle r="5" cx="1702.34" cy="48.5" fill="#132e65"></circle><circle r="5" cx="1735.97" cy="200.59" fill="#132e65"></circle><circle r="5" cx="1891.89" cy="-82.27" fill="#132e65"></circle><circle r="5" cx="1892.55" cy="106.48" fill="#132e65"></circle><circle r="5" cx="1851.37" cy="244.59" fill="#132e65"></circle><circle r="5" cx="1991.47" cy="-105.15" fill="#132e65"></circle><circle r="5" cx="1999.6" cy="61.62" fill="#132e65"></circle><circle r="5" cx="2048.76" cy="192.27" fill="#132e65"></circle><path d="M495.63 261.63L495.63 261.63" stroke="hsl(228.5, 77.2%, 51.5%)" stroke-width="1.5"></path><path d="M495.63 261.63L349.2 192.21" stroke="hsl(228.5, 77.2%, 51.5%)" stroke-width="1.5"></path><path d="M495.63 261.63L705.85 234.53" stroke="hsl(228.5, 77.2%, 51.5%)" stroke-width="1.5"></path><path d="M495.63 261.63L217.83 253.3" stroke="hsl(228.5, 77.2%, 51.5%)" stroke-width="1.5"></path><path d="M1999.79 -109.44L1999.79 -109.44" stroke="hsl(228.5, 77.2%, 51.5%)" stroke-width="1.5"></path><path d="M1999.79 -109.44L1866.73 -81.69" stroke="hsl(228.5, 77.2%, 51.5%)" stroke-width="1.5"></path><path d="M1999.79 -109.44L1853.88 61.66" stroke="hsl(228.5, 77.2%, 51.5%)" stroke-width="1.5"></path><path d="M1999.79 -109.44L2045.22 111.7" stroke="hsl(228.5, 77.2%, 51.5%)" stroke-width="1.5"></path><path d="M1999.79 -109.44L1728.42 -71.9" stroke="hsl(228.5, 77.2%, 51.5%)" stroke-width="1.5"></path><path d="M-108.89 218.81L-108.89 218.81" stroke="hsl(228.5, 77.2%, 51.5%)" stroke-width="1.5"></path><path d="M-108.89 218.81L56.84 218.4" stroke="hsl(228.5, 77.2%, 51.5%)" stroke-width="1.5"></path><path d="M-108.89 218.81L217.83 253.3" stroke="hsl(228.5, 77.2%, 51.5%)" stroke-width="1.5"></path><path d="M-108.89 218.81L349.2 192.21" stroke="hsl(228.5, 77.2%, 51.5%)" stroke-width="1.5"></path><path d="M56.84 218.4L56.84 218.4" stroke="hsl(228.5, 77.2%, 51.5%)" stroke-width="1.5"></path><path d="M56.84 218.4L217.83 253.3" stroke="hsl(228.5, 77.2%, 51.5%)" stroke-width="1.5"></path><path d="M56.84 218.4L349.2 192.21" stroke="hsl(228.5, 77.2%, 51.5%)" stroke-width="1.5"></path><path d="M56.84 218.4L495.63 261.63" stroke="hsl(228.5, 77.2%, 51.5%)" stroke-width="1.5"></path><path d="M217.83 253.3L217.83 253.3" stroke="hsl(228.5, 77.2%, 51.5%)" stroke-width="1.5"></path><path d="M217.83 253.3L349.2 192.21" stroke="hsl(228.5, 77.2%, 51.5%)" stroke-width="1.5"></path><path d="M349.2 192.21L349.2 192.21" stroke="hsl(228.5, 77.2%, 51.5%)" stroke-width="1.5"></path><path d="M349.2 192.21L705.85 234.53" stroke="hsl(228.5, 77.2%, 51.5%)" stroke-width="1.5"></path><path d="M349.2 192.21L795.58 217.85" stroke="hsl(228.5, 77.2%, 51.5%)" stroke-width="1.5"></path><path d="M705.85 234.53L705.85 234.53" stroke="hsl(228.5, 77.2%, 51.5%)" stroke-width="1.5"></path><path d="M705.85 234.53L795.58 217.85" stroke="hsl(228.5, 77.2%, 51.5%)" stroke-width="1.5"></path><path d="M705.85 234.53L937.54 207.12" stroke="hsl(228.5, 77.2%, 51.5%)" stroke-width="1.5"></path><path d="M795.58 217.85L795.58 217.85" stroke="hsl(228.5, 77.2%, 51.5%)" stroke-width="1.5"></path><path d="M795.58 217.85L937.54 207.12" stroke="hsl(228.5, 77.2%, 51.5%)" stroke-width="1.5"></path><path d="M937.54 207.12L937.54 207.12" stroke="hsl(228.5, 77.2%, 51.5%)" stroke-width="1.5"></path><path d="M937.54 207.12L1139.08 254.94" stroke="hsl(228.5, 77.2%, 51.5%)" stroke-width="1.5"></path><path d="M937.54 207.12L1263.42 190.76" stroke="hsl(228.5, 77.2%, 51.5%)" stroke-width="1.5"></path><path d="M1139.08 254.94L1139.08 254.94" stroke="hsl(228.5, 77.2%, 51.5%)" stroke-width="1.5"></path><path d="M1139.08 254.94L1263.42 190.76" stroke="hsl(228.5, 77.2%, 51.5%)" stroke-width="1.5"></path><path d="M1139.08 254.94L1425.68 249.09" stroke="hsl(228.5, 77.2%, 51.5%)" stroke-width="1.5"></path><path d="M1263.42 190.76L1263.42 190.76" stroke="hsl(228.5, 77.2%, 51.5%)" stroke-width="1.5"></path><path d="M1263.42 190.76L1425.68 249.09" stroke="hsl(228.5, 77.2%, 51.5%)" stroke-width="1.5"></path><path d="M1263.42 190.76L1411.57 65.15" stroke="hsl(228.5, 77.2%, 51.5%)" stroke-width="1.5"></path><path d="M1411.57 65.15L1411.57 65.15" stroke="hsl(228.5, 77.2%, 51.5%)" stroke-width="1.5"></path><path d="M1411.57 65.15L1550.26 73.07" stroke="hsl(228.5, 77.2%, 51.5%)" stroke-width="1.5"></path><path d="M1411.57 65.15L1425.68 249.09" stroke="hsl(228.5, 77.2%, 51.5%)" stroke-width="1.5"></path><path d="M1425.68 249.09L1425.68 249.09" stroke="hsl(228.5, 77.2%, 51.5%)" stroke-width="1.5"></path><path d="M1425.68 249.09L1556.18 208.06" stroke="hsl(228.5, 77.2%, 51.5%)" stroke-width="1.5"></path><path d="M1584.79 -45.19L1584.79 -45.19" stroke="hsl(228.5, 77.2%, 51.5%)" stroke-width="1.5"></path><path d="M1584.79 -45.19L1550.26 73.07" stroke="hsl(228.5, 77.2%, 51.5%)" stroke-width="1.5"></path><path d="M1584.79 -45.19L1690.74 49.6" stroke="hsl(228.5, 77.2%, 51.5%)" stroke-width="1.5"></path><path d="M1584.79 -45.19L1728.42 -71.9" stroke="hsl(228.5, 77.2%, 51.5%)" stroke-width="1.5"></path><path d="M1584.79 -45.19L1411.57 65.15" stroke="hsl(228.5, 77.2%, 51.5%)" stroke-width="1.5"></path><path d="M1550.26 73.07L1550.26 73.07" stroke="hsl(228.5, 77.2%, 51.5%)" stroke-width="1.5"></path><path d="M1556.18 208.06L1556.18 208.06" stroke="hsl(228.5, 77.2%, 51.5%)" stroke-width="1.5"></path><path d="M1556.18 208.06L1550.26 73.07" stroke="hsl(228.5, 77.2%, 51.5%)" stroke-width="1.5"></path><path d="M1556.18 208.06L1690.22 247.35" stroke="hsl(228.5, 77.2%, 51.5%)" stroke-width="1.5"></path><path d="M1556.18 208.06L1411.57 65.15" stroke="hsl(228.5, 77.2%, 51.5%)" stroke-width="1.5"></path><path d="M1556.18 208.06L1690.74 49.6" stroke="hsl(228.5, 77.2%, 51.5%)" stroke-width="1.5"></path><path d="M1556.18 208.06L1584.79 -45.19" stroke="hsl(228.5, 77.2%, 51.5%)" stroke-width="1.5"></path><path d="M1728.42 -71.9L1728.42 -71.9" stroke="hsl(228.5, 77.2%, 51.5%)" stroke-width="1.5"></path><path d="M1728.42 -71.9L1690.74 49.6" stroke="hsl(228.5, 77.2%, 51.5%)" stroke-width="1.5"></path><path d="M1690.74 49.6L1690.74 49.6" stroke="hsl(228.5, 77.2%, 51.5%)" stroke-width="1.5"></path><path d="M1690.74 49.6L1550.26 73.07" stroke="hsl(228.5, 77.2%, 51.5%)" stroke-width="1.5"></path><path d="M1690.22 247.35L1690.22 247.35" stroke="hsl(228.5, 77.2%, 51.5%)" stroke-width="1.5"></path><path d="M1690.22 247.35L1877.56 203.9" stroke="hsl(228.5, 77.2%, 51.5%)" stroke-width="1.5"></path><path d="M1690.22 247.35L1690.74 49.6" stroke="hsl(228.5, 77.2%, 51.5%)" stroke-width="1.5"></path><path d="M1866.73 -81.69L1866.73 -81.69" stroke="hsl(228.5, 77.2%, 51.5%)" stroke-width="1.5"></path><path d="M1866.73 -81.69L1728.42 -71.9" stroke="hsl(228.5, 77.2%, 51.5%)" stroke-width="1.5"></path><path d="M1866.73 -81.69L1853.88 61.66" stroke="hsl(228.5, 77.2%, 51.5%)" stroke-width="1.5"></path><path d="M1866.73 -81.69L1690.74 49.6" stroke="hsl(228.5, 77.2%, 51.5%)" stroke-width="1.5"></path><path d="M1853.88 61.66L1853.88 61.66" stroke="hsl(228.5, 77.2%, 51.5%)" stroke-width="1.5"></path><path d="M1853.88 61.66L1877.56 203.9" stroke="hsl(228.5, 77.2%, 51.5%)" stroke-width="1.5"></path><path d="M1853.88 61.66L1690.74 49.6" stroke="hsl(228.5, 77.2%, 51.5%)" stroke-width="1.5"></path><path d="M1853.88 61.66L1728.42 -71.9" stroke="hsl(228.5, 77.2%, 51.5%)" stroke-width="1.5"></path><path d="M1853.88 61.66L2045.22 111.7" stroke="hsl(228.5, 77.2%, 51.5%)" stroke-width="1.5"></path><path d="M1877.56 203.9L1877.56 203.9" stroke="hsl(228.5, 77.2%, 51.5%)" stroke-width="1.5"></path><path d="M1877.56 203.9L2058.13 255.61" stroke="hsl(228.5, 77.2%, 51.5%)" stroke-width="1.5"></path><path d="M2045.22 111.7L2045.22 111.7" stroke="hsl(228.5, 77.2%, 51.5%)" stroke-width="1.5"></path><path d="M2045.22 111.7L2058.13 255.61" stroke="hsl(228.5, 77.2%, 51.5%)" stroke-width="1.5"></path><path d="M2045.22 111.7L1877.56 203.9" stroke="hsl(228.5, 77.2%, 51.5%)" stroke-width="1.5"></path><path d="M2058.13 255.61L2058.13 255.61" stroke="hsl(228.5, 77.2%, 51.5%)" stroke-width="1.5"></path><path d="M2058.13 255.61L1853.88 61.66" stroke="hsl(228.5, 77.2%, 51.5%)" stroke-width="1.5"></path><circle r="25" cx="495.63" cy="261.63" fill="url(&quot;#SvgjsRadialGradient1065&quot;)"></circle><circle r="25" cx="1999.79" cy="-109.44" fill="url(&quot;#SvgjsRadialGradient1065&quot;)"></circle><circle r="5" cx="-108.89" cy="218.81" fill="#8b9ad9"></circle><circle r="5" cx="56.84" cy="218.4" fill="#8b9ad9"></circle><circle r="5" cx="217.83" cy="253.3" fill="#8b9ad9"></circle><circle r="5" cx="349.2" cy="192.21" fill="#8b9ad9"></circle><circle r="5" cx="705.85" cy="234.53" fill="#8b9ad9"></circle><circle r="5" cx="795.58" cy="217.85" fill="#8b9ad9"></circle><circle r="5" cx="937.54" cy="207.12" fill="#8b9ad9"></circle><circle r="5" cx="1139.08" cy="254.94" fill="#8b9ad9"></circle><circle r="5" cx="1263.42" cy="190.76" fill="#8b9ad9"></circle><circle r="5" cx="1411.57" cy="65.15" fill="#8b9ad9"></circle><circle r="5" cx="1425.68" cy="249.09" fill="#8b9ad9"></circle><circle r="5" cx="1584.79" cy="-45.19" fill="#8b9ad9"></circle><circle r="5" cx="1550.26" cy="73.07" fill="#8b9ad9"></circle><circle r="5" cx="1556.18" cy="208.06" fill="#8b9ad9"></circle><circle r="5" cx="1728.42" cy="-71.9" fill="#8b9ad9"></circle><circle r="5" cx="1690.74" cy="49.6" fill="#8b9ad9"></circle><circle r="5" cx="1690.22" cy="247.35" fill="#8b9ad9"></circle><circle r="5" cx="1866.73" cy="-81.69" fill="#8b9ad9"></circle><circle r="5" cx="1853.88" cy="61.66" fill="#8b9ad9"></circle><circle r="5" cx="1877.56" cy="203.9" fill="#8b9ad9"></circle><circle r="5" cx="2045.22" cy="111.7" fill="#8b9ad9"></circle><circle r="5" cx="2058.13" cy="255.61" fill="#8b9ad9"></circle></g><defs><mask id="SvgjsMask1063"><rect width="1920" height="150" fill="#ffffff"></rect></mask><linearGradient x1="100%" y1="50%" x2="0%" y2="50%" gradientUnits="userSpaceOnUse" id="SvgjsLinearGradient1064"><stop stop-color="#0e2a47" offset="0"></stop><stop stop-color="#00459e" offset="1"></stop></linearGradient><radialGradient id="SvgjsRadialGradient1065"><stop stop-color="#ffffff" offset="0.1"></stop><stop stop-color="#1735b3" offset="0.2"></stop><stop stop-color="rgba(23, 53, 179, 0)" offset="1"></stop></radialGradient></defs></svg>